mtllib Сборка.mtl
o empty_2
usemtl material6
v -3.552713678800501e-15 30 21.44737434387207
v -20 50 0
v -20 -50 0
v -3.552713678800501e-15 30 21.44737434387207
v -20 -50 0
v -3.552713678800501e-15 -30 21.44737434387207
v 20 50 0
v -20 50 0
v 0 30 21.44737434387207
v 3.552713678800501e-15 -30 21.44737434387207
v 20 -50 0
v 20 50 0
v 3.552713678800501e-15 -30 21.44737434387207
v 20 50 0
v 3.552713678800501e-15 30 21.44737434387207
v -20 -50 0
v 20 -50 0
v 0 -30 21.44737434387207
v -3.552713678800501e-15 -30 -11.547005653381348
v -20 -50 0
v -20 50 0
v -3.552713678800501e-15 -30 -11.547005653381348
v -20 50 0
v -3.552713678800501e-15 30 -11.547005653381348
v 20 -50 0
v -20 -50 0
v 0 -30 -11.547005653381348
v 3.552713678800501e-15 30 -11.547005653381348
v 20 50 0
v 20 -50 0
v 3.552713678800501e-15 30 -11.547005653381348
v 20 -50 0
v 3.552713678800501e-15 -30 -11.547005653381348
v -20 50 0
v 20 50 0
v 0 30 -11.547005653381348
v 80.5 -5.051668075007915e-15 82.5
v 80.5 4.688185485033887e-15 -82.5
v 84.90225219726562 84 -86.90225219726562
v 80.5 -5.051668075007915e-15 82.5
v 84.90225219726562 84 -86.90225219726562
v 84.90225219726562 84 86.90225219726562
v 84.90225219726562 84 -86.90225219726562
v 80.5 5.051668075007915e-15 -82.5
v -80.5 1.6563097185220955e-15 -82.5
v 84.90225219726562 84 -86.90225219726562
v -80.5 1.6563097185220955e-15 -82.5
v -84.90225219726562 84 -86.90225219726562
v -80.5 5.051668075007915e-15 -82.5
v -80.5 1.545063905240623e-15 -23.09564781188965
v -84.90225219726562 84 -19.109638214111328
v -80.5 5.051668075007915e-15 -82.5
v -84.90225219726562 84 -19.109638214111328
v -84.90225219726562 84 -86.90225219726562
v -84.90225219726562 84 -19.109638214111328
v -80.5 1.4142005971425043e-15 -23.09564781188965
v -64 1.4661296460398237e-15 -21.45407485961914
v -84.90225219726562 84 -19.109638214111328
v -64 1.4661296460398237e-15 -21.45407485961914
v -59.597747802734375 84 -16.59210968017578
v -64 1.3136831972918365e-15 -21.45407485961914
v -64 3.5296928056017867e-15 -59.5
v -59.597747802734375 84 -55.097747802734375
v -64 1.3136831972918365e-15 -21.45407485961914
v -59.597747802734375 84 -55.097747802734375
v -59.597747802734375 84 -16.59210968017578
v -64 3.6433241813000825e-15 -59.5
v 64 3.0363359243746777e-15 -59.5
v 59.597747802734375 84 -55.097747802734375
v -64 3.6433241813000825e-15 -59.5
v 59.597747802734375 84 -55.097747802734375
v -59.597747802734375 84 -55.097747802734375
v 59.597747802734375 84 -55.097747802734375
v 64 3.6433241813000825e-15 -59.5
v 64 -4.264622848111112e-15 59.5
v 59.597747802734375 84 -55.097747802734375
v 64 -4.264622848111112e-15 59.5
v 59.597747802734375 84 55.097747802734375
v 64 -3.6433241813000825e-15 59.5
v -64 -4.250312649983724e-15 59.5
v -59.597747802734375 84 55.097747802734375
v 64 -3.6433241813000825e-15 59.5
v -59.597747802734375 84 55.097747802734375
v 59.597747802734375 84 55.097747802734375
v -59.597747802734375 84 55.097747802734375
v -64 -3.6433241813000825e-15 59.5
v -64 -2.0558359162121785e-16 16.59185218811035
v -59.597747802734375 84 55.097747802734375
v -64 -2.0558359162121785e-16 16.59185218811035
v -59.597747802734375 84 11.972732543945312
v -64 -1.015957892595528e-15 16.59185218811035
v -80.5 -8.428207582867231e-16 17.385601043701172
v -84.90225219726562 84 13.190032005310059
v -64 -1.015957892595528e-15 16.59185218811035
v -84.90225219726562 84 13.190032005310059
v -59.597747802734375 84 11.972732543945312
v -84.90225219726562 84 13.190032005310059
v -80.5 -1.0645610666254533e-15 17.385601043701172
v -80.5 -4.908226010005715e-15 82.5
v -84.90225219726562 84 13.190032005310059
v -80.5 -4.908226010005715e-15 82.5
v -84.90225219726562 84 86.90225219726562
v -80.5 -5.051668075007915e-15 82.5
v 80.5 -8.44702674913109e-15 82.5
v 84.90225219726562 84 86.90225219726562
v -80.5 -5.051668075007915e-15 82.5
v 84.90225219726562 84 86.90225219726562
v -84.90225219726562 84 86.90225219726562
v -84.90225219726562 84 86.90225219726562
v -59.597747802734375 84 55.097747802734375
v -84.90225219726562 84 13.190032005310059
v -59.597747802734375 84 55.097747802734375
v -59.597747802734375 84 11.972732543945312
v -84.90225219726562 84 13.190032005310059
v -59.597747802734375 84 55.097747802734375
v -84.90225219726562 84 86.90225219726562
v 59.597747802734375 84 55.097747802734375
v -84.90225219726562 84 86.90225219726562
v 84.90225219726562 84 86.90225219726562
v 59.597747802734375 84 55.097747802734375
v 59.597747802734375 84 55.097747802734375
v 84.90225219726562 84 86.90225219726562
v 59.597747802734375 84 -55.097747802734375
v 84.90225219726562 84 86.90225219726562
v 84.90225219726562 84 -86.90225219726562
v 59.597747802734375 84 -55.097747802734375
v 59.597747802734375 84 -55.097747802734375
v 84.90225219726562 84 -86.90225219726562
v -59.597747802734375 84 -55.097747802734375
v 84.90225219726562 84 -86.90225219726562
v -84.90225219726562 84 -86.90225219726562
v -59.597747802734375 84 -55.097747802734375
v -59.597747802734375 84 -55.097747802734375
v -84.90225219726562 84 -86.90225219726562
v -59.597747802734375 84 -16.59210968017578
v -84.90225219726562 84 -86.90225219726562
v -84.90225219726562 84 -19.109638214111328
v -59.597747802734375 84 -16.59210968017578
v 80.5 5.051668075007915e-15 -82.5
v 64 3.6433241813000825e-15 -59.5
v -80.5 5.051668075007915e-15 -82.5
v 64 3.6433241813000825e-15 -59.5
v -64 3.6433241813000825e-15 -59.5
v -80.5 5.051668075007915e-15 -82.5
v -80.5 5.051668075007915e-15 -82.5
v -64 3.6433241813000825e-15 -59.5
v -80.5 1.4142005971425043e-15 -23.09564781188965
v -64 3.6433241813000825e-15 -59.5
v -64 1.3136831972918365e-15 -21.45407485961914
v -80.5 1.4142005971425043e-15 -23.09564781188965
v 64 3.6433241813000825e-15 -59.5
v 80.5 5.051668075007915e-15 -82.5
v 64 -3.6433241813000825e-15 59.5
v 80.5 5.051668075007915e-15 -82.5
v 80.5 -5.051668075007915e-15 82.5
v 64 -3.6433241813000825e-15 59.5
v 64 -3.6433241813000825e-15 59.5
v 80.5 -5.051668075007915e-15 82.5
v -64 -3.6433241813000825e-15 59.5
v 80.5 -5.051668075007915e-15 82.5
v -80.5 -5.051668075007915e-15 82.5
v -64 -3.6433241813000825e-15 59.5
v -64 -3.6433241813000825e-15 59.5
v -80.5 -5.051668075007915e-15 82.5
v -64 -1.015957892595528e-15 16.59185218811035
v -80.5 -5.051668075007915e-15 82.5
v -80.5 -1.0645610666254533e-15 17.385601043701172
v -64 -1.015957892595528e-15 16.59185218811035
vn -0.7313536949478472 0 0.6819983672166167
vn -0.7313536949478472 0 0.6819983672166167
vn -0.7313536949478472 0 0.6819983672166167
vn -0.7313536949478472 0 0.6819983672166167
vn -0.7313536949478472 0 0.6819983672166167
vn -0.7313536949478472 0 0.6819983672166167
vn 0 0.7313536949478472 0.6819983672166167
vn 0 0.7313536949478472 0.6819983672166167
vn 0 0.7313536949478472 0.6819983672166167
vn 0.7313536949478472 0 0.6819983672166167
vn 0.7313536949478472 0 0.6819983672166167
vn 0.7313536949478472 0 0.6819983672166167
vn 0.7313536949478472 0 0.6819983672166167
vn 0.7313536949478472 0 0.6819983672166167
vn 0.7313536949478472 0 0.6819983672166167
vn 0 -0.7313536949478472 0.6819983672166167
vn 0 -0.7313536949478472 0.6819983672166167
vn 0 -0.7313536949478472 0.6819983672166167
vn -0.5000000067305869 0 -0.8660253998985324
vn -0.5000000067305869 0 -0.8660253998985324
vn -0.5000000067305869 0 -0.8660253998985324
vn -0.5000000067305869 0 -0.8660253998985324
vn -0.5000000067305869 0 -0.8660253998985324
vn -0.5000000067305869 0 -0.8660253998985324
vn 0 -0.5000000067305869 -0.8660253998985324
vn 0 -0.5000000067305869 -0.8660253998985324
vn 0 -0.5000000067305869 -0.8660253998985324
vn 0.5000000067305869 0 -0.8660253998985324
vn 0.5000000067305869 0 -0.8660253998985324
vn 0.5000000067305869 0 -0.8660253998985324
vn 0.5000000067305869 0 -0.8660253998985324
vn 0.5000000067305869 0 -0.8660253998985324
vn 0.5000000067305869 0 -0.8660253998985324
vn 0 0.5000000067305869 -0.8660253998985324
vn 0 0.5000000067305869 -0.8660253998985324
vn 0 0.5000000067305869 -0.8660253998985324
vn 0.9986295355210443 -0.05233594161781565 -3.089360019733501e-18
vn 0.9986295355210443 -0.05233594161781565 -3.089360019733501e-18
vn 0.9986295355210443 -0.05233594161781565 -3.089360019733501e-18
vn 0.9986295355210443 -0.05233594161781565 0
vn 0.9986295355210443 -0.05233594161781565 0
vn 0.9986295355210443 -0.05233594161781565 0
vn 1.1037222151374277e-18 -0.05233594161781565 -0.9986295355210443
vn 1.1037222151374277e-18 -0.05233594161781565 -0.9986295355210443
vn 1.1037222151374277e-18 -0.05233594161781565 -0.9986295355210443
vn 0 -0.05233594161781565 -0.9986295355210443
vn 0 -0.05233594161781565 -0.9986295355210443
vn 0 -0.05233594161781565 -0.9986295355210443
vn -0.9986295355210443 -0.05233594161781565 -3.089360019733501e-18
vn -0.9986295355210443 -0.05233594161781565 -3.089360019733501e-18
vn -0.9986295355210443 -0.05233594161781565 -3.089360019733501e-18
vn -0.9986295355210443 -0.05233594161781565 0
vn -0.9986295355210443 -0.05233594161781565 0
vn -0.9986295355210443 -0.05233594161781565 0
vn -0.09886484032358171 -0.052335952452721074 0.9937236494260663
vn -0.09886484032358171 -0.052335952452721074 0.9937236494260663
vn -0.09886484032358171 -0.052335952452721074 0.9937236494260663
vn -0.09886491400477253 -0.0523359706426469 0.9937236411375754
vn -0.09886491400477253 -0.0523359706426469 0.9937236411375754
vn -0.09886491400477253 -0.0523359706426469 0.9937236411375754
vn 0.9986295355210443 -0.05233594161781565 -3.048340959305863e-18
vn 0.9986295355210443 -0.05233594161781565 -3.048340959305863e-18
vn 0.9986295355210443 -0.05233594161781565 -3.048340959305863e-18
vn 0.9986295355210443 -0.05233594161781565 0
vn 0.9986295355210443 -0.05233594161781565 0
vn 0.9986295355210443 -0.05233594161781565 0
vn -2.481820556552762e-19 -0.05233594161781565 0.9986295355210443
vn -2.481820556552762e-19 -0.05233594161781565 0.9986295355210443
vn -2.481820556552762e-19 -0.05233594161781565 0.9986295355210443
vn 0 -0.05233594161781565 0.9986295355210443
vn 0 -0.05233594161781565 0.9986295355210443
vn 0 -0.05233594161781565 0.9986295355210443
vn -0.9986295355210443 -0.05233594161781565 -3.477897930160758e-18
vn -0.9986295355210443 -0.05233594161781565 -3.477897930160758e-18
vn -0.9986295355210443 -0.05233594161781565 -3.477897930160758e-18
vn -0.9986295355210443 -0.05233594161781565 0
vn -0.9986295355210443 -0.05233594161781565 0
vn -0.9986295355210443 -0.05233594161781565 0
vn 2.481821332034606e-19 -0.05233594161781565 -0.9986295355210443
vn 2.481821332034606e-19 -0.05233594161781565 -0.9986295355210443
vn 2.481821332034606e-19 -0.05233594161781565 -0.9986295355210443
vn 0 -0.05233594161781565 -0.9986295355210443
vn 0 -0.05233594161781565 -0.9986295355210443
vn 0 -0.05233594161781565 -0.9986295355210443
vn 0.9986295355210443 -0.05233594161781565 -4.193082441666087e-18
vn 0.9986295355210443 -0.05233594161781565 -4.193082441666087e-18
vn 0.9986295355210443 -0.05233594161781565 -4.193082441666087e-18
vn 0.9986295355210443 -0.05233594161781565 0
vn 0.9986295355210443 -0.05233594161781565 0
vn 0.9986295355210443 -0.05233594161781565 0
vn -0.04798457341982151 -0.0523359471299988 -0.9974760294622241
vn -0.04798457341982151 -0.0523359471299988 -0.9974760294622241
vn -0.04798457341982151 -0.0523359471299988 -0.9974760294622241
vn -0.04798461798295218 -0.05233596187808 -0.9974760265446615
vn -0.04798461798295218 -0.05233596187808 -0.9974760265446615
vn -0.04798461798295218 -0.05233596187808 -0.9974760265446615
vn -0.9986295355210443 -0.05233594161781565 -3.0893602265286595e-18
vn -0.9986295355210443 -0.05233594161781565 -3.0893602265286595e-18
vn -0.9986295355210443 -0.05233594161781565 -3.0893602265286595e-18
vn -0.9986295355210443 -0.05233594161781565 0
vn -0.9986295355210443 -0.05233594161781565 0
vn -0.9986295355210443 -0.05233594161781565 0
vn -1.1037223185350068e-18 -0.05233594161781565 0.9986295355210443
vn -1.1037223185350068e-18 -0.05233594161781565 0.9986295355210443
vn -1.1037223185350068e-18 -0.05233594161781565 0.9986295355210443
vn 0 -0.05233594161781565 0.9986295355210443
vn 0 -0.05233594161781565 0.9986295355210443
vn 0 -0.05233594161781565 0.9986295355210443
vn 0 1 0
vn 0 1 0
vn 0 1 0
vn 0 1 0
vn 0 1 0
vn 0 1 0
vn 0 1 0
vn 0 1 0
vn 0 1 0
vn 0 1 0
vn 0 1 0
vn 0 1 0
vn 0 1 0
vn 0 1 0
vn 0 1 0
vn 0 1 0
vn 0 1 0
vn 0 1 0
vn 0 1 0
vn 0 1 0
vn 0 1 0
vn 0 1 0
vn 0 1 0
vn 0 1 0
vn 0 1 0
vn 0 1 0
vn 0 1 0
vn 0 1 0
vn 0 1 0
vn 0 1 0
vn 0 -1 -6.123234262925839e-17
vn 0 -1 -6.123234262925839e-17
vn 0 -1 -6.123234262925839e-17
vn 0 -1 -6.123234262925839e-17
vn 0 -1 -6.123234262925839e-17
vn 0 -1 -6.123234262925839e-17
vn -4.76741974398303e-24 -1 -6.123234262925839e-17
vn -4.76741974398303e-24 -1 -6.123234262925839e-17
vn -4.76741974398303e-24 -1 -6.123234262925839e-17
vn -2.9345323934925392e-24 -1 -6.123233601181349e-17
vn -2.9345323934925392e-24 -1 -6.123233601181349e-17
vn -2.9345323934925392e-24 -1 -6.123233601181349e-17
vn 5.6080610845922966e-24 -1 -6.123233601181349e-17
vn 5.6080610845922966e-24 -1 -6.123233601181349e-17
vn 5.6080610845922966e-24 -1 -6.123233601181349e-17
vn -4.044601879316669e-24 -1 -6.123234262925839e-17
vn -4.044601879316669e-24 -1 -6.123234262925839e-17
vn -4.044601879316669e-24 -1 -6.123234262925839e-17
vn 0 -1 -6.123234262925839e-17
vn 0 -1 -6.123234262925839e-17
vn 0 -1 -6.123234262925839e-17
vn 0 -1 -6.123234262925839e-17
vn 0 -1 -6.123234262925839e-17
vn 0 -1 -6.123234262925839e-17
vn 4.6907570579222945e-24 -1 -6.123234262925839e-17
vn 4.6907570579222945e-24 -1 -6.123234262925839e-17
vn 4.6907570579222945e-24 -1 -6.123234262925839e-17
vn 4.504245490809533e-24 -1 -6.123234262925839e-17
vn 4.504245490809533e-24 -1 -6.123234262925839e-17
vn 4.504245490809533e-24 -1 -6.123234262925839e-17
f 1//1 2//2 3//3
f 4//4 5//5 6//6
f 7//7 8//8 9//9
f 10//10 11//11 12//12
f 13//13 14//14 15//15
f 16//16 17//17 18//18
f 19//19 20//20 21//21
f 22//22 23//23 24//24
f 25//25 26//26 27//27
f 28//28 29//29 30//30
f 31//31 32//32 33//33
f 34//34 35//35 36//36
f 37//37 38//38 39//39
f 40//40 41//41 42//42
f 43//43 44//44 45//45
f 46//46 47//47 48//48
f 49//49 50//50 51//51
f 52//52 53//53 54//54
f 55//55 56//56 57//57
f 58//58 59//59 60//60
f 61//61 62//62 63//63
f 64//64 65//65 66//66
f 67//67 68//68 69//69
f 70//70 71//71 72//72
f 73//73 74//74 75//75
f 76//76 77//77 78//78
f 79//79 80//80 81//81
f 82//82 83//83 84//84
f 85//85 86//86 87//87
f 88//88 89//89 90//90
f 91//91 92//92 93//93
f 94//94 95//95 96//96
f 97//97 98//98 99//99
f 100//100 101//101 102//102
f 103//103 104//104 105//105
f 106//106 107//107 108//108
f 109//109 110//110 111//111
f 112//112 113//113 114//114
f 115//115 116//116 117//117
f 118//118 119//119 120//120
f 121//121 122//122 123//123
f 124//124 125//125 126//126
f 127//127 128//128 129//129
f 130//130 131//131 132//132
f 133//133 134//134 135//135
f 136//136 137//137 138//138
f 139//139 140//140 141//141
f 142//142 143//143 144//144
f 145//145 146//146 147//147
f 148//148 149//149 150//150
f 151//151 152//152 153//153
f 154//154 155//155 156//156
f 157//157 158//158 159//159
f 160//160 161//161 162//162
f 163//163 164//164 165//165
f 166//166 167//167 168//168
